<?xml version="1.0" encoding="UTF-8" standalone="no"?>
<!-- Created with Inkscape (http://www.inkscape.org/) -->

<svg
   xmlns:dc="http://purl.org/dc/elements/1.1/"
   xmlns:cc="http://creativecommons.org/ns#"
   xmlns:rdf="http://www.w3.org/1999/02/22-rdf-syntax-ns#"
   xmlns:svg="http://www.w3.org/2000/svg"
   xmlns="http://www.w3.org/2000/svg"
   xmlns:sodipodi="http://sodipodi.sourceforge.net/DTD/sodipodi-0.dtd"
   xmlns:inkscape="http://www.inkscape.org/namespaces/inkscape"
   width="396.5"
   height="396.5"
   viewBox="0 0 396.5 396.50001"
   id="svg26504"
   version="1.1"
   inkscape:version="0.91 r13725"
   sodipodi:docname="logo-pywebcooking.svg">
  <defs
     id="defs26506" />
  <sodipodi:namedview
     id="base"
     pagecolor="#ffffff"
     bordercolor="#666666"
     borderopacity="1.0"
     inkscape:pageopacity="0.0"
     inkscape:pageshadow="2"
     inkscape:zoom="1"
     inkscape:cx="84.210963"
     inkscape:cy="126.60635"
     inkscape:document-units="px"
     inkscape:current-layer="layer1"
     showgrid="false"
     units="px"
     inkscape:window-width="1862"
     inkscape:window-height="1051"
     inkscape:window-x="58"
     inkscape:window-y="0"
     inkscape:window-maximized="1" />
  <metadata
     id="metadata26509">
    <rdf:RDF>
      <cc:Work
         rdf:about="">
        <dc:format>image/svg+xml</dc:format>
        <dc:type
           rdf:resource="http://purl.org/dc/dcmitype/StillImage" />
        <dc:title></dc:title>
      </cc:Work>
    </rdf:RDF>
  </metadata>
  <g
     inkscape:label="Calque 1"
     inkscape:groupmode="layer"
     id="layer1"
     transform="translate(0,-655.86216)">
    <ellipse
       style="fill:#f85959;fill-opacity:1;stroke:#000000;stroke-width:2.70000005;stroke-miterlimit:4;stroke-dasharray:none;stroke-opacity:1"
       id="path26514"
       cx="198.3195"
       cy="854.0426"
       rx="195.9695"
       ry="195.96959" />
    <text
       xml:space="preserve"
       style="font-style:normal;font-weight:normal;font-size:33.03426743px;line-height:125%;font-family:sans-serif;letter-spacing:0px;word-spacing:0px;fill:#000000;fill-opacity:1;stroke:none;stroke-width:1px;stroke-linecap:butt;stroke-linejoin:miter;stroke-opacity:1"
       x="-560.56873"
       y="809.39294"
       id="text27316"
       sodipodi:linespacing="125%"
       transform="matrix(0.78706768,-0.61686656,0.61686629,0.78706803,0,0)"><tspan
         sodipodi:role="line"
         id="tspan27318"
         x="-560.56873"
         y="809.39294"
         style="font-style:normal;font-variant:normal;font-weight:normal;font-stretch:normal;font-size:66.06853485px;font-family:TSCu_Comic;-inkscape-font-specification:TSCu_Comic">PyWebCooking</tspan></text>
    <g
       transform="matrix(2.3655283,-2.0222927,2.0222918,2.3655294,22.321453,752.667)"
       id="Expanded">
      <g
         id="g5">
        <g
           id="g7">
          <path
             inkscape:connector-curvature="0"
             d="m 36,48 -24,0 c -0.522,0 -0.957,-0.402 -0.997,-0.923 L 9.07,21.946 C 5.095,21.484 2,18.097 2,14 2,9.581 5.678,5.849 10.032,5.849 c 0.91,0 1.803,0.177 2.636,0.52 C 14.072,2.509 18.439,0 24,0 29.224,0 32.878,2.112 35.14,6.45 36.027,6.054 36.988,5.848 37.968,5.848 42.322,5.849 46,9.581 46,14 c 0,4.097 -3.095,7.484 -7.07,7.946 L 36.997,47.077 C 36.957,47.598 36.522,48 36,48 Z M 12.926,46 35.073,46 37.002,20.923 C 37.043,20.402 37.478,20 38,20 c 3.309,0 6,-2.691 6,-6 0,-3.625 -3.179,-6.151 -6.032,-6.151 -0.982,0 -1.899,0.274 -2.724,0.817 C 34.999,8.827 34.693,8.873 34.412,8.789 34.13,8.706 33.899,8.504 33.78,8.234 31.898,3.981 28.791,2 24,2 18.843,2 14.941,4.415 14.29,8.009 14.23,8.339 14.009,8.617 13.7,8.749 13.392,8.883 13.037,8.851 12.757,8.666 11.932,8.123 11.015,7.849 10.033,7.849 7.179,7.849 4,10.375 4,14 c 0,3.309 2.691,6 6,6 0.522,0 0.957,0.402 0.997,0.923 L 12.926,46 Z"
             id="path9" />
        </g>
        <g
           id="g11">
          <path
             inkscape:connector-curvature="0"
             d="m 36.625,40 -25.25,0 c -0.552,0 -1,-0.447 -1,-1 0,-0.553 0.448,-1 1,-1 l 25.25,0 c 0.552,0 1,0.447 1,1 0,0.553 -0.448,1 -1,1 z"
             id="path13" />
        </g>
        <g
           id="g15">
          <path
             inkscape:connector-curvature="0"
             d="m 19,40 c -0.552,0 -1,-0.447 -1,-1 l 0,-8 c 0,-0.553 0.448,-1 1,-1 0.552,0 1,0.447 1,1 l 0,8 c 0,0.553 -0.448,1 -1,1 z"
             id="path17" />
        </g>
        <g
           id="g19">
          <path
             inkscape:connector-curvature="0"
             d="m 24,40 c -0.552,0 -1,-0.447 -1,-1 l 0,-10 c 0,-0.553 0.448,-1 1,-1 0.552,0 1,0.447 1,1 l 0,10 c 0,0.553 -0.448,1 -1,1 z"
             id="path21" />
        </g>
        <g
           id="g23">
          <path
             inkscape:connector-curvature="0"
             d="m 29,40 c -0.552,0 -1,-0.447 -1,-1 l 0,-8 c 0,-0.553 0.448,-1 1,-1 0.552,0 1,0.447 1,1 l 0,8 c 0,0.553 -0.448,1 -1,1 z"
             id="path25" />
        </g>
      </g>
    </g>
    <g
       id="layer1-8"
       transform="matrix(0.27080501,-0.05265305,0.05265303,0.27080513,148.18252,812.18261)">
      <rect
         height="289.01398"
         id="rect5392"
         ry="0.30690756"
         style="opacity:1;fill:#000000;fill-opacity:1;stroke:none;stroke-opacity:1"
         transform="matrix(0.72368416,0.69013132,-0.68900089,0.72476049,0,0)"
         width="42.212292"
         x="571.11127"
         y="-305.30087" />
      <path
         inkscape:connector-curvature="0"
         d="m 690.76261,66.183622 a 73.131567,73.245943 0 0 0 -78.32352,67.649388 73.131567,73.245943 0 0 0 67.54383,78.44479 73.131567,73.245943 0 0 0 78.32222,-67.64824 73.131567,73.245943 0 0 0 -67.54253,-78.445938 z m -0.97293,18.698614 a 54.848674,54.934456 0 0 1 50.65764,58.832944 54.848674,54.934456 0 0 1 -58.74233,50.73676 54.848674,54.934456 0 0 1 -50.65751,-58.83419 54.848674,54.934456 0 0 1 58.7422,-50.735514 z"
         id="path5396"
         style="opacity:1;fill:#000000;fill-opacity:1;stroke:none;stroke-opacity:1" />
      <path
         inkscape:connector-curvature="0"
         d="m 465.27591,371.22085 -3.43447,3.34868 -152.29401,28.49489 -76.38182,18.27275 -131.06988,224.90324 -112.693831,188.87119 -0.938295,0.9128 192.420486,-106.7636 228.72676,-123.83534 20.73678,-75.86276 33.42631,-151.52582 4.92859,-4.75179 -4.04825,0.75593 0.62163,-2.82017 z"
         id="path5403"
         style="opacity:1;fill:#000000;fill-opacity:1;stroke:none;stroke-opacity:1" />
    </g>
    <text
       xml:space="preserve"
       style="font-style:normal;font-weight:normal;font-size:33.03426743px;line-height:125%;font-family:sans-serif;letter-spacing:0px;word-spacing:0px;fill:#ffffff;fill-opacity:1;stroke:none;stroke-width:1px;stroke-linecap:butt;stroke-linejoin:miter;stroke-opacity:1"
       x="-558.2041"
       y="813.20844"
       id="text27316-3"
       sodipodi:linespacing="125%"
       transform="matrix(0.78706768,-0.61686656,0.61686629,0.78706803,0,0)"><tspan
         sodipodi:role="line"
         id="tspan27318-2"
         x="-558.2041"
         y="813.20844"
         style="font-style:normal;font-variant:normal;font-weight:normal;font-stretch:normal;font-size:66.06853485px;font-family:TSCu_Comic;-inkscape-font-specification:TSCu_Comic;fill:#ffffff;fill-opacity:1">PyWebCooking</tspan></text>
  </g>
</svg>
