<?xml version="1.0" encoding="UTF-8" standalone="no"?>
<!-- Created with Inkscape (http://www.inkscape.org/) -->

<svg
   xmlns:dc="http://purl.org/dc/elements/1.1/"
   xmlns:cc="http://creativecommons.org/ns#"
   xmlns:rdf="http://www.w3.org/1999/02/22-rdf-syntax-ns#"
   xmlns:svg="http://www.w3.org/2000/svg"
   xmlns="http://www.w3.org/2000/svg"
   xmlns:sodipodi="http://sodipodi.sourceforge.net/DTD/sodipodi-0.dtd"
   xmlns:inkscape="http://www.inkscape.org/namespaces/inkscape"
   width="396.5"
   height="396.5"
   viewBox="0 0 396.5 396.50001"
   id="svg26504"
   version="1.1"
   inkscape:version="0.91 r13725"
   sodipodi:docname="logo-pywebcooking.svg">
  <defs
     id="defs26506" />
  <sodipodi:namedview
     id="base"
     pagecolor="#ffffff"
     bordercolor="#666666"
     borderopacity="1.0"
     inkscape:pageopacity="0.0"
     inkscape:pageshadow="2"
     inkscape:zoom="1"
     inkscape:cx="84.210963"
     inkscape:cy="126.60635"
     inkscape:document-units="px"
     inkscape:current-layer="layer1"
     showgrid="false"
     units="px"
     inkscape:window-width="1280"
     inkscape:window-height="965"
     inkscape:window-x="0"
     inkscape:window-y="0"
     inkscape:window-maximized="1" />
  <metadata
     id="metadata26509">
    <rdf:RDF>
      <cc:Work
         rdf:about="">
        <dc:format>image/svg+xml</dc:format>
        <dc:type
           rdf:resource="http://purl.org/dc/dcmitype/StillImage" />
        <dc:title />
      </cc:Work>
    </rdf:RDF>
  </metadata>
  <g
     inkscape:label="Calque 1"
     inkscape:groupmode="layer"
     id="layer1"
     transform="translate(0,-655.86216)">
    <ellipse
       style="fill:#f85959;fill-opacity:1;stroke:#000000;stroke-width:2.70000005;stroke-miterlimit:4;stroke-dasharray:none;stroke-opacity:1"
       id="path26514"
       cx="198.3195"
       cy="854.0426"
       rx="195.9695"
       ry="195.96959" />
    <g
       transform="matrix(0.78706768,-0.61686656,0.61686629,0.78706803,0,0)"
       style="font-style:normal;font-weight:normal;font-size:33.03426743px;line-height:125%;font-family:sans-serif;letter-spacing:0px;word-spacing:0px;fill:#000000;fill-opacity:1;stroke:none;stroke-width:1px;stroke-linecap:butt;stroke-linejoin:miter;stroke-opacity:1"
       id="text27316">
      <path
         d="m -515.86564,775.79989 q 0,11.30725 -19.06455,16.10626 -5.58789,1.38053 -9.66376,1.38053 l -1.18331,5.85085 q -0.59166,3.28699 -1.84072,9.46654 -0.52592,2.36663 -2.62959,2.36663 -2.36664,0 -2.36664,-2.89255 0,-0.26296 1.57776,-8.4147 l 1.18332,-6.11381 -3.02403,0.19722 q -0.92036,0.0657 -1.70924,-0.65739 -0.59166,-0.78888 -0.72314,-1.6435 0,-1.70924 1.38054,-2.36663 1.44627,-0.72314 4.99623,-0.72314 l 1.90645,-12.55631 q 0.52592,-1.9722 2.30089,-1.9722 2.69534,0 2.69534,2.6296 0,2.10367 -0.85462,6.90268 l -0.72314,4.60179 q 6.57399,0 13.73963,-2.82682 8.94062,-3.54995 8.94062,-9.33505 0,-2.82681 -4.47031,-4.20735 -2.89256,-0.92036 -6.77121,-0.92036 -7.69156,0 -12.81926,1.84072 l -11.89891,4.20735 q -1.11758,0 -1.57776,-0.59166 -0.46018,-0.78888 -0.52592,-1.77498 -0.0657,-1.64349 1.77498,-2.49811 5.25918,-2.56386 12.03039,-4.27309 7.29712,-1.90646 12.62204,-1.90646 6.57399,0 10.78134,1.90646 5.91658,2.56385 5.91658,8.21748 z"
         style="font-style:normal;font-variant:normal;font-weight:normal;font-stretch:normal;font-size:66.06853485px;font-family:TSCu_Comic;-inkscape-font-specification:TSCu_Comic"
         id="path3380" />
      <path
         d="m -485.41757,788.22472 -19.78769,39.83834 q -0.65739,1.31479 -2.36663,1.31479 -0.72314,0 -1.38054,-0.72313 -0.65739,-0.6574 -0.65739,-1.90646 0,-0.72314 0.98609,-2.69533 l 6.96843,-13.73963 q -3.87865,-9.99245 -7.29713,-15.77756 l -3.81291,-6.70546 q 0,-2.36664 2.49812,-2.36664 1.44627,0 5.4564,6.90269 2.03794,3.61569 3.22126,6.04806 1.31479,2.69534 2.76107,6.17955 l 9.0721,-18.07846 q 0.46017,-1.3148 2.62959,-1.3148 1.70923,0 1.70923,3.02404 z"
         style="font-style:normal;font-variant:normal;font-weight:normal;font-stretch:normal;font-size:66.06853485px;font-family:TSCu_Comic;-inkscape-font-specification:TSCu_Comic"
         id="path3382" />
      <path
         d="m -425.70987,769.75182 q 0,0.3287 -2.56386,4.99623 -4.01013,7.16564 -5.98232,11.37299 -3.87865,8.02026 -6.63973,15.97478 -1.84071,5.25919 -2.56385,6.70547 -1.18332,2.56385 -2.62959,2.56385 -1.6435,0 -4.14161,-3.74717 -1.6435,-2.43238 -2.82682,-5.19345 -2.49811,-5.39066 -4.66752,-13.41092 -2.76108,4.40456 -8.87488,18.47289 -1.84072,4.14161 -3.15551,4.14161 -1.6435,0 -4.53605,-6.7712 -2.6296,-6.11381 -4.73327,-15.31739 -0.19722,-0.85461 -0.78888,-4.14161 -0.78888,-4.73326 -1.05184,-9.46653 -0.13148,-2.56386 -0.13148,-5.78511 0,-1.11757 0.85462,-1.77497 0.85462,-0.72314 1.9722,-0.72314 0.98609,0 1.64349,0.52592 0.59166,0.59166 0.59166,1.70923 0,11.37299 2.43238,21.49693 1.64349,6.57398 3.74717,10.58411 2.82681,-7.69156 6.37676,-13.34518 1.51202,-2.36664 2.56385,-3.68143 1.18332,-1.44628 2.69534,-2.6296 2.03793,-1.57775 2.89255,-1.57775 0.85462,0 2.10367,4.86474 l 2.56386,9.99246 q 1.44627,5.65362 3.94439,7.69156 2.82681,-8.61192 5.12771,-14.13407 2.03793,-4.66752 5.32492,-11.04429 1.9722,-3.94439 5.52215,-9.53227 0.72314,-1.05184 2.16941,-1.05184 0.9861,0 1.84072,0.6574 0.92036,0.59166 0.92036,1.57775 z"
         style="font-style:normal;font-variant:normal;font-weight:normal;font-stretch:normal;font-size:66.06853485px;font-family:TSCu_Comic;-inkscape-font-specification:TSCu_Comic"
         id="path3384" />
      <path
         d="m -399.16292,804.72542 q 0,2.43237 -6.04807,4.40456 -4.99623,1.57776 -8.21748,1.57776 -10.32115,0 -10.32115,-9.00636 0,-5.7851 3.94439,-10.51837 4.47031,-5.45641 11.04429,-5.45641 4.20735,0 6.7712,1.70924 2.56386,1.70923 2.56386,3.87865 0,3.94439 -7.7573,7.95452 -6.50825,3.35273 -8.87488,3.35273 -1.84072,0 -1.84072,-2.23515 0,-0.72314 6.90269,-3.54995 6.96842,-2.89256 6.96842,-4.79901 0,-0.78888 -1.05184,-1.44628 -1.18332,-0.46018 -3.68143,-0.46018 -4.93049,0 -7.82304,3.48421 -2.62959,3.22126 -2.62959,7.95452 0,2.3009 1.31479,3.54996 1.3148,1.24905 4.20735,1.24905 3.28699,0 6.11381,-1.31479 l 6.31102,-2.9583 q 2.10368,0 2.10368,2.6296 z"
         style="font-style:normal;font-variant:normal;font-weight:normal;font-stretch:normal;font-size:66.06853485px;font-family:TSCu_Comic;-inkscape-font-specification:TSCu_Comic"
         id="path3386" />
      <path
         d="m -371.52883,794.20704 q 0,8.48044 -7.03416,12.88501 -4.99623,3.08977 -10.25541,3.08977 -2.49812,0 -2.49812,-2.23515 0,-2.49812 2.23516,-2.49812 3.61569,0 7.4286,-2.16941 5.45641,-2.95829 5.45641,-8.4147 0,-4.14161 -3.81291,-4.14161 -3.22126,0 -6.96843,1.9722 l -3.81291,2.03793 -2.23515,13.73963 q -0.3287,1.97219 -2.6296,1.97219 -0.92035,0 -1.51201,-0.85462 -0.52592,-0.72313 -0.52592,-1.64349 l 6.50824,-38.72077 q 0.39444,-1.57775 2.49812,-1.84071 0.85461,0 1.51201,0.59166 0.59166,0.6574 0.59166,2.16941 l -3.15551,18.73586 3.35273,-1.38054 q 3.35273,-1.38054 7.23138,-1.38054 2.76108,0 4.79901,1.51202 2.82681,2.16941 2.82681,6.57398 z"
         style="font-style:normal;font-variant:normal;font-weight:normal;font-stretch:normal;font-size:66.06853485px;font-family:TSCu_Comic;-inkscape-font-specification:TSCu_Comic"
         id="path3388" />
      <path
         d="m -334.38196,770.93514 q 0,0.78888 -0.78887,1.38054 -0.59166,0.3287 -1.57776,0.46018 -0.92036,0 -2.03794,-1.05184 -1.11757,-1.05184 -3.15551,-1.05184 -8.28322,0 -16.30348,9.79524 -7.62582,9.26931 -7.62582,17.28957 0,4.66753 3.35273,6.50825 2.16942,1.31479 5.25919,1.31479 5.65363,0 9.53228,-2.62959 l 8.48044,-5.58789 q 0.92035,0 1.70923,0.6574 0.6574,0.6574 0.6574,1.9722 0,3.35273 -8.7434,7.03416 -7.7573,3.28699 -11.89891,3.28699 -6.24528,0 -9.66375,-3.15551 -3.54996,-3.28699 -3.54996,-9.53228 0,-10.38689 9.20358,-21.03674 9.4008,-10.91282 19.39325,-10.91282 2.82682,0 5.06197,1.18332 2.69533,1.44628 2.69533,4.07587 z"
         style="font-style:normal;font-variant:normal;font-weight:normal;font-stretch:normal;font-size:66.06853485px;font-family:TSCu_Comic;-inkscape-font-specification:TSCu_Comic"
         id="path3390" />
      <path
         d="m -307.93401,795.91628 q 0,6.1138 -3.94439,10.18967 -3.94439,4.07587 -10.71559,4.07587 -5.06197,0 -7.82304,-3.48421 -2.36663,-3.02403 -2.36663,-7.88878 0,-4.99623 3.68143,-8.7434 4.20735,-4.33883 10.84707,-4.33883 4.99623,0 7.88878,3.35274 2.43237,2.89255 2.43237,6.83694 z m -4.4703,0.78888 q 0,-2.43238 -1.44628,-4.27309 -1.77498,-2.16942 -5.32493,-2.16942 -3.74717,0 -6.4425,2.76108 -2.36664,2.43237 -2.36664,5.52214 0,6.90268 6.31103,6.90268 3.81291,0 6.50824,-2.62959 2.76108,-2.62959 2.76108,-6.1138 z"
         style="font-style:normal;font-variant:normal;font-weight:normal;font-stretch:normal;font-size:66.06853485px;font-family:TSCu_Comic;-inkscape-font-specification:TSCu_Comic"
         id="path3392" />
      <path
         d="m -281.48079,795.91628 q 0,6.1138 -3.94439,10.18967 -3.94439,4.07587 -10.71559,4.07587 -5.06197,0 -7.82304,-3.48421 -2.36664,-3.02403 -2.36664,-7.88878 0,-4.99623 3.68143,-8.7434 4.20735,-4.33883 10.84708,-4.33883 4.99622,0 7.88878,3.35274 2.43237,2.89255 2.43237,6.83694 z m -4.47031,0.78888 q 0,-2.43238 -1.44627,-4.27309 -1.77498,-2.16942 -5.32493,-2.16942 -3.74717,0 -6.4425,2.76108 -2.36664,2.43237 -2.36664,5.52214 0,6.90268 6.31103,6.90268 3.81291,0 6.50824,-2.62959 2.76107,-2.62959 2.76107,-6.1138 z"
         style="font-style:normal;font-variant:normal;font-weight:normal;font-stretch:normal;font-size:66.06853485px;font-family:TSCu_Comic;-inkscape-font-specification:TSCu_Comic"
         id="path3394" />
      <path
         d="m -256.21089,808.47259 q 0,0.85461 -0.85462,1.64349 -0.78888,0.85462 -1.64349,0.85462 -0.3287,0 -6.77121,-7.69156 -7.0999,-8.34896 -7.49434,-8.80914 l -2.36663,14.26555 q 0,1.64349 -2.43238,1.97219 -0.98609,0 -1.57775,-0.6574 -0.6574,-0.59166 -0.6574,-1.70923 l 6.50824,-38.85225 q 0.13148,-0.92035 0.72314,-1.31479 0.46018,-0.39444 1.6435,-0.39444 0.78888,0 1.51201,0.6574 0.78888,0.6574 0.85462,1.44627 l -3.28699,18.86734 q 3.61569,-1.6435 9.7295,-4.86475 1.64349,-0.85462 2.82681,-1.05184 0.78888,0 1.44627,0.85462 0.6574,0.78888 0.6574,1.64349 0.0657,2.82682 -11.24151,6.96843 2.49812,2.49811 3.87865,4.07587 1.38054,1.57775 4.07587,4.99622 4.47031,5.71937 4.47031,7.09991 z"
         style="font-style:normal;font-variant:normal;font-weight:normal;font-stretch:normal;font-size:66.06853485px;font-family:TSCu_Comic;-inkscape-font-specification:TSCu_Comic"
         id="path3396" />
      <path
         d="m -243.08089,779.2841 q 0,2.16941 -1.84071,2.82681 -0.52592,0.19722 -1.3148,0.19722 -1.24906,0 -2.10368,-0.78888 -0.85461,-0.78887 -0.85461,-2.23515 0,-3.02403 2.95829,-3.02403 1.3148,0 2.30089,0.72314 0.85462,0.92035 0.85462,2.30089 z m -2.36663,8.94062 q 0,1.18331 -0.39444,3.74717 l -2.76108,16.76366 q 0,0.85461 -0.85461,1.38053 -0.78888,0.59166 -1.6435,0.59166 -1.90645,0 -2.16941,-2.23515 l 0.46018,-3.22126 2.89255,-17.15809 q 0.3287,-1.84072 2.36663,-1.84072 2.10368,0 2.10368,1.9722 z"
         style="font-style:normal;font-variant:normal;font-weight:normal;font-stretch:normal;font-size:66.06853485px;font-family:TSCu_Comic;-inkscape-font-specification:TSCu_Comic"
         id="path3398" />
      <path
         d="m -215.78229,794.99592 q 0,3.22125 -0.78888,6.70546 -0.26296,1.11758 -0.92036,3.41848 -0.59166,2.30089 -1.18332,3.68143 -0.78888,1.77497 -1.97219,1.77497 -2.6296,0 -2.6296,-2.36663 1.11758,-3.81291 1.77498,-6.90269 0.85462,-4.01013 0.85462,-6.96842 0,-3.35273 -1.6435,-3.35273 -1.90645,0 -7.4286,3.68143 -5.58789,3.68143 -5.85084,5.32493 l -1.44628,8.7434 q -0.3287,1.84071 -2.43238,1.84071 -2.23515,0 -2.23515,-2.23515 l 3.48421,-21.03675 q 0.26296,-1.84072 2.56386,-1.84072 0.78887,0 1.51201,0.85462 0.52592,0.46018 0.52592,1.24906 l 0,0.26296 -0.6574,4.33883 q 8.28322,-6.31103 14.00259,-6.31103 1.64349,0 3.02403,2.49812 1.44628,2.43237 1.44628,6.63972 z"
         style="font-style:normal;font-variant:normal;font-weight:normal;font-stretch:normal;font-size:66.06853485px;font-family:TSCu_Comic;-inkscape-font-specification:TSCu_Comic"
         id="path3400" />
      <path
         d="m -187.37395,788.61916 -4.86475,29.78014 q -0.85462,5.06197 -4.60179,7.95452 -3.61569,2.69534 -8.87487,2.69534 -4.07587,0 -7.23139,-2.6296 -2.69533,-2.30089 -2.69533,-4.33883 0,-1.97219 2.10367,-2.23515 1.24906,0 2.6296,1.44627 2.89255,3.15552 5.19345,3.15552 2.69533,0 4.93048,-1.24906 3.22125,-1.77498 3.94439,-5.85085 l 1.84072,-11.17577 -3.08977,1.84072 q -3.87865,1.90645 -7.36287,1.90645 -3.41847,0 -5.85084,-2.43237 -2.36663,-2.49811 -2.36663,-6.57398 0,-4.93049 4.07586,-9.46654 4.60179,-5.19345 11.50448,-5.19345 2.49811,0 3.41847,0.52592 0.85462,0.59166 0.85462,1.84072 0,1.64349 -1.05184,2.10367 -0.52592,0.26296 -2.49812,0.26296 -5.25918,0 -8.67765,3.41847 -2.9583,2.89255 -2.9583,6.50825 0,3.94439 3.54995,3.94439 5.52215,0 11.50448,-5.39067 l 1.97219,-11.63595 q 0.39444,-2.10368 2.23516,-2.10368 1.24905,0 1.84071,0.59166 0.52592,0.6574 0.52592,2.3009 z"
         style="font-style:normal;font-variant:normal;font-weight:normal;font-stretch:normal;font-size:66.06853485px;font-family:TSCu_Comic;-inkscape-font-specification:TSCu_Comic"
         id="path3402" />
    </g>
    <g
       transform="matrix(2.3655283,-2.0222927,2.0222918,2.3655294,22.321453,752.667)"
       id="Expanded">
      <g
         id="g5">
        <g
           id="g7">
          <path
             inkscape:connector-curvature="0"
             d="m 36,48 -24,0 c -0.522,0 -0.957,-0.402 -0.997,-0.923 L 9.07,21.946 C 5.095,21.484 2,18.097 2,14 2,9.581 5.678,5.849 10.032,5.849 c 0.91,0 1.803,0.177 2.636,0.52 C 14.072,2.509 18.439,0 24,0 29.224,0 32.878,2.112 35.14,6.45 36.027,6.054 36.988,5.848 37.968,5.848 42.322,5.849 46,9.581 46,14 c 0,4.097 -3.095,7.484 -7.07,7.946 L 36.997,47.077 C 36.957,47.598 36.522,48 36,48 Z M 12.926,46 35.073,46 37.002,20.923 C 37.043,20.402 37.478,20 38,20 c 3.309,0 6,-2.691 6,-6 0,-3.625 -3.179,-6.151 -6.032,-6.151 -0.982,0 -1.899,0.274 -2.724,0.817 C 34.999,8.827 34.693,8.873 34.412,8.789 34.13,8.706 33.899,8.504 33.78,8.234 31.898,3.981 28.791,2 24,2 18.843,2 14.941,4.415 14.29,8.009 14.23,8.339 14.009,8.617 13.7,8.749 13.392,8.883 13.037,8.851 12.757,8.666 11.932,8.123 11.015,7.849 10.033,7.849 7.179,7.849 4,10.375 4,14 c 0,3.309 2.691,6 6,6 0.522,0 0.957,0.402 0.997,0.923 L 12.926,46 Z"
             id="path9" />
        </g>
        <g
           id="g11">
          <path
             inkscape:connector-curvature="0"
             d="m 36.625,40 -25.25,0 c -0.552,0 -1,-0.447 -1,-1 0,-0.553 0.448,-1 1,-1 l 25.25,0 c 0.552,0 1,0.447 1,1 0,0.553 -0.448,1 -1,1 z"
             id="path13" />
        </g>
        <g
           id="g15">
          <path
             inkscape:connector-curvature="0"
             d="m 19,40 c -0.552,0 -1,-0.447 -1,-1 l 0,-8 c 0,-0.553 0.448,-1 1,-1 0.552,0 1,0.447 1,1 l 0,8 c 0,0.553 -0.448,1 -1,1 z"
             id="path17" />
        </g>
        <g
           id="g19">
          <path
             inkscape:connector-curvature="0"
             d="m 24,40 c -0.552,0 -1,-0.447 -1,-1 l 0,-10 c 0,-0.553 0.448,-1 1,-1 0.552,0 1,0.447 1,1 l 0,10 c 0,0.553 -0.448,1 -1,1 z"
             id="path21" />
        </g>
        <g
           id="g23">
          <path
             inkscape:connector-curvature="0"
             d="m 29,40 c -0.552,0 -1,-0.447 -1,-1 l 0,-8 c 0,-0.553 0.448,-1 1,-1 0.552,0 1,0.447 1,1 l 0,8 c 0,0.553 -0.448,1 -1,1 z"
             id="path25" />
        </g>
      </g>
    </g>
    <g
       id="layer1-8"
       transform="matrix(0.27080501,-0.05265305,0.05265303,0.27080513,148.18252,812.18261)">
      <rect
         height="289.01398"
         id="rect5392"
         ry="0.30690756"
         style="opacity:1;fill:#000000;fill-opacity:1;stroke:none;stroke-opacity:1"
         transform="matrix(0.72368416,0.69013132,-0.68900089,0.72476049,0,0)"
         width="42.212292"
         x="571.11127"
         y="-305.30087" />
      <path
         inkscape:connector-curvature="0"
         d="m 690.76261,66.183622 a 73.131567,73.245943 0 0 0 -78.32352,67.649388 73.131567,73.245943 0 0 0 67.54383,78.44479 73.131567,73.245943 0 0 0 78.32222,-67.64824 73.131567,73.245943 0 0 0 -67.54253,-78.445938 z m -0.97293,18.698614 a 54.848674,54.934456 0 0 1 50.65764,58.832944 54.848674,54.934456 0 0 1 -58.74233,50.73676 54.848674,54.934456 0 0 1 -50.65751,-58.83419 54.848674,54.934456 0 0 1 58.7422,-50.735514 z"
         id="path5396"
         style="opacity:1;fill:#000000;fill-opacity:1;stroke:none;stroke-opacity:1" />
      <path
         inkscape:connector-curvature="0"
         d="m 465.27591,371.22085 -3.43447,3.34868 -152.29401,28.49489 -76.38182,18.27275 -131.06988,224.90324 -112.693831,188.87119 -0.938295,0.9128 192.420486,-106.7636 228.72676,-123.83534 20.73678,-75.86276 33.42631,-151.52582 4.92859,-4.75179 -4.04825,0.75593 0.62163,-2.82017 z"
         id="path5403"
         style="opacity:1;fill:#000000;fill-opacity:1;stroke:none;stroke-opacity:1" />
    </g>
    <g
       transform="matrix(0.78706768,-0.61686656,0.61686629,0.78706803,0,0)"
       style="font-style:normal;font-weight:normal;font-size:33.03426743px;line-height:125%;font-family:sans-serif;letter-spacing:0px;word-spacing:0px;fill:#ffffff;fill-opacity:1;stroke:none;stroke-width:1px;stroke-linecap:butt;stroke-linejoin:miter;stroke-opacity:1"
       id="text27316-3">
      <path
         d="m -513.50101,779.61538 q 0,11.30725 -19.06456,16.10626 -5.58788,1.38054 -9.66375,1.38054 l -1.18332,5.85084 q -0.59166,3.28699 -1.84071,9.46654 -0.52592,2.36663 -2.6296,2.36663 -2.36663,0 -2.36663,-2.89255 0,-0.26296 1.57775,-8.4147 l 1.18332,-6.11381 -3.02403,0.19722 q -0.92036,0.0657 -1.70924,-0.65739 -0.59166,-0.78888 -0.72313,-1.6435 0,-1.70924 1.38053,-2.36663 1.44628,-0.72314 4.99623,-0.72314 l 1.90645,-12.55631 q 0.52592,-1.9722 2.3009,-1.9722 2.69533,0 2.69533,2.6296 0,2.10367 -0.85462,6.90268 l -0.72313,4.60179 q 6.57398,0 13.73962,-2.82681 8.94062,-3.54996 8.94062,-9.33506 0,-2.82681 -4.47031,-4.20735 -2.89255,-0.92036 -6.7712,-0.92036 -7.69156,0 -12.81927,1.84072 l -11.89891,4.20735 q -1.11758,0 -1.57776,-0.59166 -0.46018,-0.78888 -0.52592,-1.77498 -0.0657,-1.64349 1.77498,-2.49811 5.25919,-2.56385 12.03039,-4.27309 7.29712,-1.90646 12.62205,-1.90646 6.57398,0 10.78133,1.90646 5.91659,2.56385 5.91659,8.21748 z"
         style="font-style:normal;font-variant:normal;font-weight:normal;font-stretch:normal;font-size:66.06853485px;font-family:TSCu_Comic;-inkscape-font-specification:TSCu_Comic;fill:#ffffff;fill-opacity:1"
         id="path3355" />
      <path
         d="m -483.05294,792.04021 -19.78769,39.83834 q -0.6574,1.3148 -2.36664,1.3148 -0.72313,0 -1.38053,-0.72314 -0.6574,-0.6574 -0.6574,-1.90646 0,-0.72314 0.9861,-2.69533 l 6.96842,-13.73963 q -3.87865,-9.99245 -7.29712,-15.77756 l -3.81291,-6.70546 q 0,-2.36664 2.49811,-2.36664 1.44628,0 5.45641,6.90269 2.03793,3.61569 3.22125,6.04806 1.3148,2.69534 2.76107,6.17955 l 9.0721,-18.07846 q 0.46018,-1.31479 2.62959,-1.31479 1.70924,0 1.70924,3.02403 z"
         style="font-style:normal;font-variant:normal;font-weight:normal;font-stretch:normal;font-size:66.06853485px;font-family:TSCu_Comic;-inkscape-font-specification:TSCu_Comic;fill:#ffffff;fill-opacity:1"
         id="path3357" />
      <path
         d="m -423.34525,773.56731 q 0,0.3287 -2.56385,4.99623 -4.01013,7.16564 -5.98233,11.37299 -3.87865,8.02026 -6.63972,15.97478 -1.84072,5.25919 -2.56386,6.70547 -1.18331,2.56385 -2.62959,2.56385 -1.64349,0 -4.14161,-3.74717 -1.64349,-2.43237 -2.82681,-5.19345 -2.49812,-5.39066 -4.66753,-13.41092 -2.76107,4.40456 -8.87488,18.47289 -1.84071,4.14161 -3.15551,4.14161 -1.6435,0 -4.53605,-6.7712 -2.62959,-6.11381 -4.73327,-15.31739 -0.19722,-0.85461 -0.78887,-4.1416 -0.78888,-4.73327 -1.05184,-9.46654 -0.13148,-2.56385 -0.13148,-5.78511 0,-1.11757 0.85462,-1.77497 0.85461,-0.72314 1.97219,-0.72314 0.9861,0 1.6435,0.52592 0.59166,0.59166 0.59166,1.70923 0,11.373 2.43237,21.49693 1.6435,6.57398 3.74717,10.58411 2.82681,-7.69156 6.37676,-13.34518 1.51202,-2.36664 2.56386,-3.68143 1.18332,-1.44628 2.69533,-2.6296 2.03794,-1.57775 2.89255,-1.57775 0.85462,0 2.10368,4.86474 l 2.56385,9.99246 q 1.44628,5.65363 3.94439,7.69156 2.82682,-8.61192 5.12771,-14.13406 2.03793,-4.66753 5.32493,-11.0443 1.97219,-3.94439 5.52214,-9.53227 0.72314,-1.05184 2.16942,-1.05184 0.98609,0 1.84071,0.6574 0.92036,0.59166 0.92036,1.57775 z"
         style="font-style:normal;font-variant:normal;font-weight:normal;font-stretch:normal;font-size:66.06853485px;font-family:TSCu_Comic;-inkscape-font-specification:TSCu_Comic;fill:#ffffff;fill-opacity:1"
         id="path3359" />
      <path
         d="m -396.7983,808.54091 q 0,2.43237 -6.04806,4.40457 -4.99623,1.57775 -8.21748,1.57775 -10.32116,0 -10.32116,-9.00636 0,-5.7851 3.94439,-10.51837 4.47031,-5.45641 11.04429,-5.45641 4.20735,0 6.77121,1.70924 2.56385,1.70924 2.56385,3.87865 0,3.94439 -7.7573,7.95452 -6.50824,3.35273 -8.87488,3.35273 -1.84071,0 -1.84071,-2.23515 0,-0.72314 6.90268,-3.54995 6.96842,-2.89256 6.96842,-4.79901 0,-0.78888 -1.05183,-1.44628 -1.18332,-0.46018 -3.68144,-0.46018 -4.93048,0 -7.82304,3.48421 -2.62959,3.22126 -2.62959,7.95452 0,2.3009 1.3148,3.54996 1.31479,1.24905 4.20735,1.24905 3.28699,0 6.1138,-1.31479 l 6.31103,-2.9583 q 2.10367,0 2.10367,2.6296 z"
         style="font-style:normal;font-variant:normal;font-weight:normal;font-stretch:normal;font-size:66.06853485px;font-family:TSCu_Comic;-inkscape-font-specification:TSCu_Comic;fill:#ffffff;fill-opacity:1"
         id="path3361" />
      <path
         d="m -369.1642,798.02253 q 0,8.48044 -7.03416,12.88501 -4.99623,3.08977 -10.25542,3.08977 -2.49811,0 -2.49811,-2.23515 0,-2.49812 2.23515,-2.49812 3.61569,0 7.4286,-2.16941 5.45641,-2.95829 5.45641,-8.4147 0,-4.14161 -3.81291,-4.14161 -3.22125,0 -6.96842,1.9722 l -3.81291,2.03793 -2.23516,13.73963 q -0.3287,1.97219 -2.62959,1.97219 -0.92036,0 -1.51202,-0.85462 -0.52592,-0.72313 -0.52592,-1.64349 l 6.50825,-38.72076 q 0.39444,-1.57776 2.49811,-1.84072 0.85462,0 1.51202,0.59166 0.59166,0.6574 0.59166,2.16941 l -3.15552,18.73586 3.35274,-1.38054 q 3.35273,-1.38054 7.23138,-1.38054 2.76107,0 4.79901,1.51202 2.82681,2.16941 2.82681,6.57398 z"
         style="font-style:normal;font-variant:normal;font-weight:normal;font-stretch:normal;font-size:66.06853485px;font-family:TSCu_Comic;-inkscape-font-specification:TSCu_Comic;fill:#ffffff;fill-opacity:1"
         id="path3363" />
      <path
         d="m -332.01733,774.75063 q 0,0.78888 -0.78888,1.38054 -0.59166,0.3287 -1.57776,0.46018 -0.92035,0 -2.03793,-1.05184 -1.11758,-1.05184 -3.15551,-1.05184 -8.28322,0 -16.30348,9.79524 -7.62582,9.26931 -7.62582,17.28957 0,4.66753 3.35273,6.50825 2.16941,1.31479 5.25918,1.31479 5.65363,0 9.53228,-2.62959 l 8.48044,-5.58788 q 0.92036,0 1.70924,0.65739 0.65739,0.6574 0.65739,1.9722 0,3.35273 -8.74339,7.03416 -7.7573,3.28699 -11.89891,3.28699 -6.24529,0 -9.66376,-3.15551 -3.54995,-3.28699 -3.54995,-9.53228 0,-10.38689 9.20358,-21.03674 9.40079,-10.91282 19.39325,-10.91282 2.82681,0 5.06196,1.18332 2.69534,1.44628 2.69534,4.07587 z"
         style="font-style:normal;font-variant:normal;font-weight:normal;font-stretch:normal;font-size:66.06853485px;font-family:TSCu_Comic;-inkscape-font-specification:TSCu_Comic;fill:#ffffff;fill-opacity:1"
         id="path3365" />
      <path
         d="m -305.56938,799.73177 q 0,6.1138 -3.94439,10.18967 -3.94439,4.07587 -10.7156,4.07587 -5.06196,0 -7.82304,-3.48421 -2.36663,-3.02403 -2.36663,-7.88878 0,-4.99623 3.68143,-8.7434 4.20735,-4.33883 10.84707,-4.33883 4.99623,0 7.88878,3.35274 2.43238,2.89255 2.43238,6.83694 z m -4.47031,0.78888 q 0,-2.43238 -1.44628,-4.27309 -1.77497,-2.16942 -5.32492,-2.16942 -3.74717,0 -6.44251,2.76108 -2.36663,2.43237 -2.36663,5.52214 0,6.90268 6.31102,6.90268 3.81291,0 6.50825,-2.62959 2.76107,-2.62959 2.76107,-6.1138 z"
         style="font-style:normal;font-variant:normal;font-weight:normal;font-stretch:normal;font-size:66.06853485px;font-family:TSCu_Comic;-inkscape-font-specification:TSCu_Comic;fill:#ffffff;fill-opacity:1"
         id="path3367" />
      <path
         d="m -279.11617,799.73177 q 0,6.1138 -3.94439,10.18967 -3.94439,4.07587 -10.71559,4.07587 -5.06197,0 -7.82304,-3.48421 -2.36663,-3.02403 -2.36663,-7.88878 0,-4.99623 3.68143,-8.7434 4.20735,-4.33883 10.84707,-4.33883 4.99623,0 7.88878,3.35274 2.43237,2.89255 2.43237,6.83694 z m -4.4703,0.78888 q 0,-2.43238 -1.44628,-4.27309 -1.77498,-2.16942 -5.32493,-2.16942 -3.74717,0 -6.4425,2.76108 -2.36664,2.43237 -2.36664,5.52214 0,6.90268 6.31103,6.90268 3.81291,0 6.50824,-2.62959 2.76108,-2.62959 2.76108,-6.1138 z"
         style="font-style:normal;font-variant:normal;font-weight:normal;font-stretch:normal;font-size:66.06853485px;font-family:TSCu_Comic;-inkscape-font-specification:TSCu_Comic;fill:#ffffff;fill-opacity:1"
         id="path3369" />
      <path
         d="m -253.84627,812.28808 q 0,0.85462 -0.85461,1.64349 -0.78888,0.85462 -1.6435,0.85462 -0.3287,0 -6.7712,-7.69156 -7.0999,-8.34896 -7.49434,-8.80914 l -2.36664,14.26555 q 0,1.64349 -2.43237,1.97219 -0.9861,0 -1.57776,-0.6574 -0.6574,-0.59166 -0.6574,-1.70923 l 6.50825,-38.85225 q 0.13148,-0.92035 0.72314,-1.31479 0.46017,-0.39444 1.64349,-0.39444 0.78888,0 1.51202,0.6574 0.78888,0.6574 0.85462,1.44627 l -3.287,18.86734 q 3.61569,-1.6435 9.7295,-4.86475 1.6435,-0.85462 2.82681,-1.05184 0.78888,0 1.44628,0.85462 0.6574,0.78888 0.6574,1.6435 0.0657,2.82681 -11.24151,6.96842 2.49811,2.49811 3.87865,4.07587 1.38053,1.57775 4.07587,4.99623 4.4703,5.71936 4.4703,7.0999 z"
         style="font-style:normal;font-variant:normal;font-weight:normal;font-stretch:normal;font-size:66.06853485px;font-family:TSCu_Comic;-inkscape-font-specification:TSCu_Comic;fill:#ffffff;fill-opacity:1"
         id="path3371" />
      <path
         d="m -240.71627,783.09959 q 0,2.16941 -1.84071,2.82681 -0.52592,0.19722 -1.3148,0.19722 -1.24905,0 -2.10367,-0.78888 -0.85462,-0.78887 -0.85462,-2.23515 0,-3.02403 2.95829,-3.02403 1.3148,0 2.3009,0.72314 0.85461,0.92035 0.85461,2.30089 z m -2.36663,8.94062 q 0,1.18332 -0.39444,3.74717 l -2.76107,16.76366 q 0,0.85461 -0.85462,1.38053 -0.78888,0.59166 -1.6435,0.59166 -1.90645,0 -2.16941,-2.23515 l 0.46018,-3.22125 2.89255,-17.1581 q 0.3287,-1.84072 2.36664,-1.84072 2.10367,0 2.10367,1.9722 z"
         style="font-style:normal;font-variant:normal;font-weight:normal;font-stretch:normal;font-size:66.06853485px;font-family:TSCu_Comic;-inkscape-font-specification:TSCu_Comic;fill:#ffffff;fill-opacity:1"
         id="path3373" />
      <path
         d="m -213.41767,798.81141 q 0,3.22125 -0.78888,6.70546 -0.26296,1.11758 -0.92036,3.41848 -0.59165,2.30089 -1.18331,3.68143 -0.78888,1.77497 -1.9722,1.77497 -2.62959,0 -2.62959,-2.36663 1.11758,-3.81291 1.77497,-6.90268 0.85462,-4.01013 0.85462,-6.96843 0,-3.35273 -1.64349,-3.35273 -1.90646,0 -7.42861,3.68143 -5.58788,3.68143 -5.85084,5.32493 l -1.44628,8.7434 q -0.3287,1.84071 -2.43237,1.84071 -2.23516,0 -2.23516,-2.23515 l 3.48422,-21.03675 q 0.26296,-1.84072 2.56385,-1.84072 0.78888,0 1.51202,0.85462 0.52591,0.46018 0.52591,1.24906 l 0,0.26296 -0.65739,4.33883 q 8.28322,-6.31103 14.00258,-6.31103 1.6435,0 3.02403,2.49812 1.44628,2.43237 1.44628,6.63972 z"
         style="font-style:normal;font-variant:normal;font-weight:normal;font-stretch:normal;font-size:66.06853485px;font-family:TSCu_Comic;-inkscape-font-specification:TSCu_Comic;fill:#ffffff;fill-opacity:1"
         id="path3375" />
      <path
         d="m -185.00933,792.43465 -4.86474,29.78014 q -0.85462,5.06197 -4.60179,7.95452 -3.61569,2.69534 -8.87488,2.69534 -4.07587,0 -7.23138,-2.6296 -2.69534,-2.30089 -2.69534,-4.33883 0,-1.97219 2.10368,-2.23515 1.24906,0 2.62959,1.44628 2.89256,3.15551 5.19345,3.15551 2.69533,0 4.93049,-1.24906 3.22125,-1.77498 3.94439,-5.85084 l 1.84071,-11.17578 -3.08977,1.84072 q -3.87865,1.90645 -7.36286,1.90645 -3.41847,0 -5.85085,-2.43237 -2.36663,-2.49811 -2.36663,-6.57398 0,-4.93049 4.07587,-9.46654 4.60179,-5.19345 11.50447,-5.19345 2.49811,0 3.41847,0.52592 0.85462,0.59166 0.85462,1.84072 0,1.64349 -1.05184,2.10367 -0.52592,0.26296 -2.49811,0.26296 -5.25919,0 -8.67766,3.41847 -2.95829,2.89256 -2.95829,6.50825 0,3.94439 3.54995,3.94439 5.52214,0 11.50447,-5.39067 l 1.97219,-11.63595 q 0.39444,-2.10368 2.23516,-2.10368 1.24906,0 1.84071,0.59166 0.52592,0.6574 0.52592,2.3009 z"
         style="font-style:normal;font-variant:normal;font-weight:normal;font-stretch:normal;font-size:66.06853485px;font-family:TSCu_Comic;-inkscape-font-specification:TSCu_Comic;fill:#ffffff;fill-opacity:1"
         id="path3377" />
    </g>
  </g>
</svg>
